<?xml version="1.0" encoding="UTF-8"?>
<svg version="1.1" xmlns="http://www.w3.org/2000/svg" width="512" height="512">
<path d="M0 0 C3.02775252 1.45318888 5.24183043 2.97078933 7.70703125 5.26171875 C31.58201963 26.5690301 64.99831709 37.78732765 96 43 C95.88541307 41.56163249 95.75790884 40.12429034 95.625 38.6875 C95.52058594 37.48673828 95.52058594 37.48673828 95.4140625 36.26171875 C95.10435574 33.72775559 95.10435574 33.72775559 93 31 C92.9453125 28.58203125 92.9453125 28.58203125 93.125 25.8125 C93.23454209 20.90888041 92.38579364 18.15897657 89.96484375 13.98046875 C88.29777867 10.55859832 87.7757966 6.78903752 88 3 C88.66 2.01 89.32 1.02 90 0 C90.99 0 91.98 0 93 0 C93.42317708 1.92057292 93.84635417 3.84114583 94.26953125 5.76171875 C94.93178098 8.12543366 94.93178098 8.12543366 96.57421875 10.38671875 C98.31685036 13.58074765 98.21657372 15.52446188 98 19.125 C97.74944948 22.19324135 97.74944948 22.19324135 98 25 C98.96690547 26.03203382 99.9654115 27.03582852 101 28 C101.1171875 29.8828125 101.1171875 29.8828125 100.875 32.125 C100.69773201 37.35055194 101.83057071 41.7913599 103.3125 46.75 C103.63226807 47.83112061 103.63226807 47.83112061 103.95849609 48.93408203 C105.54348824 54.04837064 107.14319138 59.14319138 111 63 C110.94457031 64.16917969 110.88914062 65.33835937 110.83203125 66.54296875 C110.70114325 71.95830693 113.01537591 75.73767194 115.6875 80.3125 C116.12255859 81.10978516 116.55761719 81.90707031 117.00585938 82.72851562 C119.45778754 87.04754168 121.32996242 89.8864389 126 92 C126.94875 92.556875 127.8975 93.11375 128.875 93.6875 C132.46420861 95.19496762 135.14484751 95.23130915 139 95 C139.3403125 93.63875 139.3403125 93.63875 139.6875 92.25 C141 89 141 89 143.375 87.125 C146.41931015 84.66055845 147.43402232 82.50969472 149.0234375 79.0078125 C150 77 150 77 152.1875 74 C153.9478395 71.08633461 154.2496604 69.9869492 154.5 66.75 C154.665 65.5125 154.83 64.275 155 63 C157.03125 61.765625 157.03125 61.765625 159 61 C158.91298828 60.10861328 158.91298828 60.10861328 158.82421875 59.19921875 C158.46666542 52.63045321 159.90754864 48.37671244 162.82421875 42.53515625 C164.2983926 39.35662194 164.7322959 36.48015328 165 33 C166.05417242 24.03953447 168.41707289 15.4204053 171.37109375 6.9140625 C172.11866303 4.63885166 172.61882655 2.36327536 173 0 C174.9375 0.6875 174.9375 0.6875 177 2 C178.47199269 6.32251821 177.58200787 9.3490617 176.25 13.625 C175.87746094 14.86121094 175.50492188 16.09742188 175.12109375 17.37109375 C174.56615234 19.16740234 174.56615234 19.16740234 174 21 C172.29323484 26.62271986 170.89303637 31.95806431 170.41796875 37.83203125 C170.29651489 39.29153198 170.29651489 39.29153198 170.17260742 40.78051758 C170.11564697 41.51294678 170.05868652 42.24537598 170 43 C202.79173355 36.23465755 236.92363515 25.28883236 261.46875 1.328125 C263 0 263 0 265 0 C267.74018713 15.0895948 270.47837836 30.17955083 273.21417999 45.26994133 C274.48444571 52.27632535 275.75536955 59.2825888 277.02783203 66.28857422 C278.25487057 73.04447269 279.48008915 79.80069916 280.70417786 86.55713272 C281.17246206 89.14013828 281.6413653 91.72303168 282.11088562 94.30581284 C282.76629776 97.91175454 283.41954594 101.51808182 284.07226562 105.12451172 C284.26863113 106.20200684 284.46499664 107.27950195 284.66731262 108.38964844 C284.84400986 109.36843964 285.02070709 110.34723083 285.20275879 111.35568237 C285.43505062 112.63605283 285.43505062 112.63605283 285.67203522 113.94228935 C286 116 286 116 286 118 C266.41536646 118.35042088 246.90726777 117.56258993 227.34423828 116.71142578 C226.27746857 116.665513 225.21069885 116.61960022 224.11160278 116.57229614 C222.10489412 116.48536455 220.09827257 116.39638637 218.09176636 116.30490112 C212.05682798 116.04149257 206.04048661 115.94840691 200 116 C191.43760414 132.01114532 199.28346078 163.11824155 202 180 C202.1041925 180.65421936 202.20838501 181.30843872 202.31573486 181.98248291 C210.5344319 233.34973432 221.55512646 295.67016623 252.40625 338.72265625 C253.83728137 340.76748784 254.91504002 342.76153458 256 345 C241.59998767 343.49629884 227.20559748 341.94338414 212.8125 340.375 C210.68294604 340.14319856 208.55338877 339.91142757 206.42382812 339.6796875 C201.28251397 339.12014115 196.14124429 338.56018788 191 338 C190.76418213 338.81186768 190.52836426 339.62373535 190.28540039 340.46020508 C186.99843058 351.1298198 186.99843058 351.1298198 182.4375 354.6875 C181.67308594 355.31011719 180.90867187 355.93273437 180.12109375 356.57421875 C174.74638329 360.18705359 168.21498993 359.52220625 162 359 C156.04928538 357.34439577 152.41956744 354.02877565 149 349 C146.64903636 343.96222077 146.8346589 339.45625621 147 334 C144.03 334 141.06 334 138 334 C136.35 325.75 134.7 317.5 133 309 C132.67 309 132.34 309 132 309 C129.525 321.375 129.525 321.375 127 334 C124.03 334 121.06 334 118 334 C118.0825 335.299375 118.165 336.59875 118.25 337.9375 C118.21625862 343.30237985 117.0208209 347.53989601 114 352 C107.53454994 358.20527099 102.06179614 359.37145445 93.23046875 359.2734375 C87.26106197 358.76816728 83.87409245 356.11950391 79.75 351.875 C77.42311136 348.96711441 76.32686651 346.3356571 75.328125 342.7578125 C75.07450195 341.86465332 74.82087891 340.97149414 74.55957031 340.05126953 C74.37491211 339.37435059 74.19025391 338.69743164 74 338 C72.74155273 338.14099121 71.48310547 338.28198242 70.18652344 338.42724609 C65.41533369 338.96146998 60.64397011 339.49412804 55.87255859 340.02636719 C53.82661411 340.25479633 51.78071395 340.48362283 49.73486328 340.71289062 C36.16496732 342.23325243 22.59037909 343.67470372 9 345 C11.48301024 340.62802267 14.03301639 336.35765629 16.75 332.125 C45.10123015 286.44728104 55.8416112 226.42444671 64 174 C64.26683594 172.30447998 64.26683594 172.30447998 64.5390625 170.57470703 C66.43998934 158.1111897 67.25803651 145.7833489 67.3125 133.1875 C67.31813965 131.93412842 67.3237793 130.68075684 67.32958984 129.3894043 C67.45455002 122.39067873 67.45455002 122.39067873 65 116 C60.81377453 116.12221122 56.62758869 116.24569153 52.44143677 116.37039185 C50.9361315 116.41521043 49.43082141 116.45986725 47.92550659 116.50436401 C39.06023053 116.7672945 30.19818066 117.06277625 21.33642578 117.42822266 C7.21736396 118.00730424 -6.87087861 118.08700341 -21 118 C-16.90783954 93.88823073 -12.57806297 69.82014889 -8.23968506 45.75170898 C-7.30679015 40.57484859 -6.37513474 35.39776512 -5.44335938 30.22070312 C-3.63008485 20.14692295 -1.81549033 10.07338107 0 0 Z M76 55 C75.87625 55.804375 75.7525 56.60875 75.625 57.4375 C75.41875 58.283125 75.2125 59.12875 75 60 C74.01 60.495 74.01 60.495 73 61 C73 61.66 73 62.32 73 63 C74.485 63.99 74.485 63.99 76 65 C76.99 66.485 76.99 66.485 78 68 C78.66 67.34 79.32 66.68 80 66 C82.125 65.375 82.125 65.375 84 65 C84 62.36 84 59.72 84 57 C83.236875 57.04125 82.47375 57.0825 81.6875 57.125 C79 57 79 57 76 55 Z M205 58 C205.185625 58.763125 205.37125 59.52625 205.5625 60.3125 C206 63 206 63 205 66 C205.763125 65.95875 206.52625 65.9175 207.3125 65.875 C210 66 210 66 213 68 C213 66.35 213 64.7 213 63 C214.32 62.34 215.64 61.68 217 61 C215.68 60.67 214.36 60.34 213 60 C212.67 58.68 212.34 57.36 212 56 C209.64712386 56 207.20626776 57.24893012 205 58 Z M244 67 C243.67 69.31 243.34 71.62 243 74 C241.35 74.66 239.7 75.32 238 76 C238.33 76.66 238.66 77.32 239 78 C241.52733235 78.65555119 241.52733235 78.65555119 244 79 C244.33 81.31 244.66 83.62 245 86 C245.515625 85.34 246.03125 84.68 246.5625 84 C249.79995755 81.34362457 251.92552281 81.68657868 256 82 C255.649375 80.948125 255.29875 79.89625 254.9375 78.8125 C254.05029473 75.2045319 253.94737118 73.47367511 255 70 C253.39125 70.0928125 253.39125 70.0928125 251.75 70.1875 C247.89133813 69.99456691 246.71182212 69.60334924 244 67 Z M22 74 C21.34 75.98 20.68 77.96 20 80 C18.02 80.33 16.04 80.66 14 81 C14.474375 81.515625 14.94875 82.03125 15.4375 82.5625 C17.42809407 85.66782675 17.65060818 88.36632504 18 92 C18.515625 91.649375 19.03125 91.29875 19.5625 90.9375 C22.94006667 89.6384359 25.50468057 90.32782319 29 91 C28.938125 89.39125 28.938125 89.39125 28.875 87.75 C28.9885825 84.34252515 29.21273364 82.79260369 31 80 C30.071875 79.7525 29.14375 79.505 28.1875 79.25 C24.83541675 77.93545755 23.8122197 77.02036616 22 74 Z M135 123 C134.62875 123.804375 134.2575 124.60875 133.875 125.4375 C132 128 132 128 128.3125 128.8125 C127.219375 128.874375 126.12625 128.93625 125 129 C125.495 129.495 125.99 129.99 126.5 130.5 C128.66978095 134.11630158 128.20888419 136.82231616 128 141 C129.2375 140.79375 130.475 140.5875 131.75 140.375 C135.11909835 139.93892876 137.12841921 139.96596361 140 142 C140 139.36 140 136.72 140 134 C141.32 133.34 142.64 132.68 144 132 C144 131.34 144 130.68 144 130 C143.05125 129.773125 142.1025 129.54625 141.125 129.3125 C138 128 138 128 136.625 125.375 C136.41875 124.59125 136.2125 123.8075 136 123 C135.67 123 135.34 123 135 123 Z M92 168 C92 169.65 92 171.3 92 173 C90.02 173.99 90.02 173.99 88 175 C89.32 175.33 90.64 175.66 92 176 C92 177.32 92 178.64 92 180 C94.64 179.34 97.28 178.68 100 178 C99.814375 177.236875 99.62875 176.47375 99.4375 175.6875 C99 173 99 173 100 170 C99.236875 170.04125 98.47375 170.0825 97.6875 170.125 C95 170 95 170 92 168 Z M178 184 C177.505 184.66 177.01 185.32 176.5 186 C172.84451323 188.92438942 169.51519663 188.34732282 165 188 C165.515625 188.886875 166.03125 189.77375 166.5625 190.6875 C168.55168239 195.27126812 167.51917733 197.44246802 166 202 C167.8253125 201.87625 167.8253125 201.87625 169.6875 201.75 C173.16639526 201.72528316 173.93832664 201.95888443 177 204 C177.66 204.66 178.32 205.32 179 206 C179.33 203.36 179.66 200.72 180 198 C180.804375 197.71125 181.60875 197.4225 182.4375 197.125 C185.1326468 196.26737432 185.1326468 196.26737432 186 194 C184.02 193.34 182.04 192.68 180 192 C179.67 189.36 179.34 186.72 179 184 C178.67 184 178.34 184 178 184 Z M99 242 C99.33 244.64 99.66 247.28 100 250 C102.31 250.66 104.62 251.32 107 252 C107.33 250.35 107.66 248.7 108 247 C108.99 246.67 109.98 246.34 111 246 C109.68 245.34 108.36 244.68 107 244 C107 242.68 107 241.36 107 240 C104.11604263 240 101.70522185 241.05905327 99 242 Z M171 255 C170.01 255 169.02 255 168 255 C168.185625 255.763125 168.37125 256.52625 168.5625 257.3125 C169 260 169 260 168 263 C170.64 263.66 173.28 264.32 176 265 C176.33 263.68 176.66 262.36 177 261 C178.5625 259.25 178.5625 259.25 180 258 C178.68 257.67 177.36 257.34 176 257 C175.67 255.68 175.34 254.36 175 253 C173.53774984 252.90754997 173.53774984 252.90754997 171 255 Z M59 286 C59 287.65 59 289.3 59 291 C57.02 291.99 57.02 291.99 55 293 C56.32 293.33 57.64 293.66 59 294 C59.33 295.65 59.66 297.3 60 299 C60.99 298.34 61.98 297.68 63 297 C64.65549531 296.61500109 66.3222433 296.27206865 68 296 C67.835 295.05125 67.67 294.1025 67.5 293.125 C67 290 67 290 67 288 C66.236875 288.04125 65.47375 288.0825 64.6875 288.125 C62 288 62 288 59 286 Z M200 304 C200.0309375 305.1446875 200.0309375 305.1446875 200.0625 306.3125 C200 309 200 309 199 312 C202.25397508 314.25885324 202.25397508 314.25885324 206 315 C207.54166642 313.62514468 207.54166642 313.62514468 209 312 C209.66 311.34 210.32 310.68 211 310 C210.34 309.67 209.68 309.34 209 309 C208.375 306.4375 208.375 306.4375 208 304 C206.8553125 304.2784375 206.8553125 304.2784375 205.6875 304.5625 C203 305 203 305 200 304 Z " fill="#000000" transform="translate(146,153)"/>
<path d="M0 0 C12.0229407 0.15614209 20.58639948 4.85958927 29.34375 12.71875 C32.66943315 16.57654246 32.0612429 20.72646999 31.90625 25.53125 C30.09509044 27.34240956 27.29346773 26.91324448 24.84375 27.09375 C23.18666016 27.21943359 23.18666016 27.21943359 21.49609375 27.34765625 C20.64144531 27.40824219 19.78679687 27.46882813 18.90625 27.53125 C19.40125 28.830625 19.40125 28.830625 19.90625 30.15625 C20.93871149 33.64080754 21.44153072 35.93722233 20.90625 39.53125 C16.86324977 44.24934783 12.2932628 46.75012582 6.90234375 49.58007812 C3.43961301 51.46037815 0.78810102 53.00106232 -1.09375 56.53125 C-1.34418828 58.48108398 -1.34418828 58.48108398 -1.09375 60.59375 C-0.58547257 82.64028366 -8.61880016 105.47738496 -15.09765625 126.35546875 C-15.35134979 127.17419968 -15.60504333 127.9929306 -15.86642456 128.83647156 C-17.11540302 132.85294218 -18.3824242 136.86259011 -19.67578125 140.86499023 C-20.13944353 142.32922614 -20.60299093 143.79349842 -21.06640625 145.2578125 C-21.28680069 145.92105026 -21.50719513 146.58428802 -21.73426819 147.2676239 C-22.95792554 151.17219782 -22.99653508 153.59874631 -22.09375 157.53125 C-22.43920898 160.66918945 -22.43920898 160.66918945 -23.08984375 164.14453125 C-23.43305664 166.0152832 -23.43305664 166.0152832 -23.78320312 167.92382812 C-24.03005859 169.21740234 -24.27691406 170.51097656 -24.53125 171.84375 C-24.77753996 173.16976479 -25.02299154 174.49593559 -25.26757812 175.82226562 C-25.86807215 179.06022361 -26.4770786 182.29634085 -27.09375 185.53125 C-31.09375 185.53125 -31.09375 185.53125 -34.09375 183.53125 C-34.20653793 184.14245697 -34.31932587 184.75366394 -34.43553162 185.38339233 C-35.585003 191.39313135 -37.0482987 197.21525176 -38.81640625 203.0703125 C-39.07756226 203.94574203 -39.33871826 204.82117157 -39.60778809 205.72312927 C-40.45048073 208.53627132 -41.3019162 211.34662258 -42.15625 214.15625 C-42.44853485 215.11933075 -42.7408197 216.0824115 -43.04196167 217.07467651 C-48.96608295 236.53687099 -55.49989836 255.21220686 -64.28125 273.59375 C-69.41567546 284.38107643 -72.82114192 294.95212216 -75.43164062 306.58691406 C-76.38957931 310.84677413 -77.40582568 315.09153696 -78.43994141 319.33349609 C-78.94415363 321.40376936 -79.43679124 323.47691027 -79.91552734 325.55322266 C-81.27053743 331.18832866 -82.93949993 335.65773057 -86.09375 340.53125 C-88.07375 340.53125 -90.05375 340.53125 -92.09375 340.53125 C-96.98907425 330.55375707 -91.5606404 317.07448746 -88.5625 307.10546875 C-88.21043488 305.92743179 -87.85836975 304.74939484 -87.49563599 303.53565979 C-84.0191621 292.04705299 -80.14727491 280.70849871 -76.16879272 269.38565063 C-74.08125922 263.44178346 -72.01647362 257.49000637 -69.94921875 251.5390625 C-69.33011375 249.75895531 -69.33011375 249.75895531 -68.69850159 247.94288635 C-64.81697811 236.76831129 -61.02506125 225.56512184 -57.28125 214.34375 C-57.00496765 213.51962616 -56.7286853 212.69550232 -56.44403076 211.84640503 C-54.62569774 206.41902292 -52.84359602 200.98108753 -51.09375 195.53125 C-50.8087262 194.64967224 -50.52370239 193.76809448 -50.2300415 192.85980225 C-49.35451628 190.13330414 -48.49708244 187.40172799 -47.64453125 184.66796875 C-47.37376266 183.82845169 -47.10299408 182.98893463 -46.82402039 182.12397766 C-44.90811895 175.87451337 -45.34395049 172.25134201 -47.78125 166.21875 C-49.11072291 162.23694557 -49.37506031 159.4076189 -48.09765625 155.390625 C-45.71317634 150.9742342 -41.77894774 148.09298258 -37.09375 146.53125 C-36.32311687 144.64049847 -36.32311687 144.64049847 -35.9453125 142.265625 C-35.75106689 141.33089355 -35.55682129 140.39616211 -35.35668945 139.43310547 C-35.04090942 137.87293701 -35.04090942 137.87293701 -34.71875 136.28125 C-31.82062377 123.00761505 -27.39645618 110.45754218 -22.67626953 97.74121094 C-19.24493476 88.40598395 -16.70317287 79.36148547 -15.09375 69.53125 C-15.76486816 69.32991455 -16.43598633 69.1285791 -17.12744141 68.92114258 C-23.84375 66.90625 -23.84375 66.90625 -26.09375 63.53125 C-25.99806343 57.34842563 -23.89908974 54.35992996 -19.90625 50.03125 C-19.40810791 49.46591553 -18.90996582 48.90058105 -18.39672852 48.31811523 C-16.32423569 45.97073091 -14.21202768 43.66089161 -12.1015625 41.34765625 C-7.33740458 36.0264948 -5.86976846 31.48484863 -5.78515625 24.3984375 C-5.76001953 23.26277344 -5.73488281 22.12710937 -5.70898438 20.95703125 C-5.67371293 18.58208757 -5.64248904 16.20708046 -5.61523438 13.83203125 C-5.58880859 12.69894531 -5.56238281 11.56585938 -5.53515625 10.3984375 C-5.52170166 9.36831543 -5.50824707 8.33819336 -5.49438477 7.27685547 C-4.95443755 3.57652249 -3.78490813 0.96034982 0 0 Z " fill="#000000" transform="translate(166.09375,-0.53125)"/>
<path d="M0 0 C1.01642578 -0.020625 2.03285156 -0.04125 3.08007812 -0.0625 C11.28270201 -0.10432345 20.18616203 0.47007014 26.8125 5.8125 C29.51636382 8.58751813 30.07171784 9.45606522 30.625 13.25 C30.49314378 19.59228406 26.39157909 24.82506227 22.27734375 29.3515625 C15.7071708 35.51647245 6.80748396 42.37667201 -1.8125 45.25 C-2.34617187 44.59773438 -2.87984375 43.94546875 -3.4296875 43.2734375 C-11.93337364 33.29852539 -20.96201303 27.57188674 -34.12109375 25.96875 C-43.04949648 25.58678625 -51.272556 28.5260336 -58.83984375 33.06640625 C-60.8125 34.25 -60.8125 34.25 -62.94140625 35.15234375 C-65.30405272 36.53836391 -65.7280082 37.76792043 -66.8125 40.25 C-67.77742021 41.65571941 -68.75754024 43.05108675 -69.75 44.4375 C-73.96139826 50.73405398 -75.77100921 56.50368154 -76.38671875 64.0390625 C-76.46881592 65.0182666 -76.55091309 65.9974707 -76.63549805 67.00634766 C-76.69390869 67.74675293 -76.75231934 68.4871582 -76.8125 69.25 C-80.77068926 69.33821107 -84.72862062 69.39079412 -88.6875 69.4375 C-90.35039062 69.47520508 -90.35039062 69.47520508 -92.046875 69.51367188 C-100.71009038 69.59011201 -109.73044589 68.78285477 -116.8125 63.25 C-119.40194729 59.79740361 -119.29331812 56.4399865 -118.8125 52.25 C-112.59586074 34.98857017 -91.4461002 25.61939229 -75.96801758 18.27929688 C-52.23200598 7.40532403 -26.19942547 0.13140778 0 0 Z " fill="#000000" transform="translate(314.8125,81.75)"/>
<path d="M0 0 C8.65214557 6.64001869 14.78761437 15.21731951 16.6875 26.0625 C17.42544745 33.98518581 17.29278518 41.46696316 12.22265625 47.9296875 C11.17844721 49.11942201 10.11899099 50.29598997 9.04296875 51.45703125 C7.33998945 53.47410472 6.55986171 55.59080848 5.6875 58.0625 C4.6975 58.5575 4.6975 58.5575 3.6875 59.0625 C3.73970703 59.91521484 3.73970703 59.91521484 3.79296875 60.78515625 C3.98996134 66.40413544 3.32855665 70.08512401 0.6875 75.0625 C-1.3125 77.0625 -1.3125 77.0625 -3.8125 77.3125 C-6.3125 77.0625 -6.3125 77.0625 -8.3125 75.0625 C-8.3125 74.0725 -8.3125 73.0825 -8.3125 72.0625 C-11.55132004 70.17767599 -14.28151354 69.67784069 -18 69.375 C-19.45986328 69.24544922 -19.45986328 69.24544922 -20.94921875 69.11328125 C-21.72910156 69.09652344 -22.50898438 69.07976562 -23.3125 69.0625 C-23.6425 69.3925 -23.9725 69.7225 -24.3125 70.0625 C-25.075625 70.041875 -25.83875 70.02125 -26.625 70 C-29.45739693 70.0658697 -30.90732179 70.63720921 -33.3125 72.0625 C-33.3125 72.7225 -33.3125 73.3825 -33.3125 74.0625 C-36.11120027 75.46185013 -38.21748792 75.31515405 -41.3125 75.0625 C-43.34917615 73.51743534 -44.17323078 72.34103844 -45.3125 70.0625 C-45.3385504 68.58341602 -45.35843273 67.1042206 -45.375 65.625 C-45.97246544 58.77406297 -49.8307602 54.05976461 -54.3125 49.0625 C-55.03308594 48.53398437 -55.75367188 48.00546875 -56.49609375 47.4609375 C-59.57027559 45.09414804 -59.83806546 41.71154589 -60.3125 38.0625 C-61.2640701 25.92580763 -58.82075321 16.67229991 -51.3125 7.0625 C-37.584811 -8.42514913 -17.50665421 -10.23974114 0 0 Z M-37.19140625 49.7265625 C-41.33448114 54.39833604 -41.92900753 58.41436374 -41.71875 64.546875 C-41.30888976 67.08485571 -40.5944663 68.85007429 -39.3125 71.0625 C-35.08072727 69.5511526 -33.5370697 66.84426849 -31.3125 63.0625 C-31.02375 62.19625 -30.735 61.33 -30.4375 60.4375 C-28.86209044 57.11163537 -26.3683624 55.98902195 -23.3125 54.0625 C-23.3125 53.4025 -23.3125 52.7425 -23.3125 52.0625 C-18.8277926 53.47197947 -16.34571259 55.48486464 -13.3125 59.0625 C-12.24473913 61.14306346 -11.28554552 63.22535614 -10.40234375 65.390625 C-9.43747597 67.26549055 -9.43747597 67.26549055 -7.26953125 67.66796875 C-6.62371094 67.79816406 -5.97789062 67.92835938 -5.3125 68.0625 C-4.0625 70.125 -4.0625 70.125 -3.3125 72.0625 C-0.7034499 68.24927292 -0.05475042 65.65133391 -0.8125 61.1875 C-2.2639875 55.28359687 -4.59315929 50.07717677 -9.55859375 46.3984375 C-18.70691502 41.96052846 -29.62695488 43.02706919 -37.19140625 49.7265625 Z " fill="#000000" transform="translate(300.3125,115.9375)"/>
<path d="M0 0 C10.33031113 6.15474144 19.25156912 13.42120982 27.53125 22.1171875 C24.65991701 24.03140949 22.89511901 24.67390913 19.61328125 25.4921875 C18.61707764 25.7504834 17.62087402 26.0087793 16.59448242 26.27490234 C14.98536987 26.6918335 14.98536987 26.6918335 13.34375 27.1171875 C0.99822397 30.41955929 -10.55616956 34.98547022 -22.20825195 40.19677734 C-24.28725088 41.04328625 -26.27945744 41.63807371 -28.46875 42.1171875 C-28.82066406 40.94542969 -29.17257813 39.77367187 -29.53515625 38.56640625 C-33.66168586 25.25058177 -38.04598211 13.73557002 -50.46875 6.1171875 C-55.26664272 3.91815333 -60.25746419 3.55725163 -65.46875 3.1171875 C-65.40081186 -0.27971956 -65.26144222 -2.91274992 -63.0546875 -5.61328125 C-46.73201213 -20.17425818 -16.80611692 -9.12223914 0 0 Z M-32.46875 -0.8828125 C-32.79875 0.7671875 -33.12875 2.4171875 -33.46875 4.1171875 C-31.98375 5.1071875 -31.98375 5.1071875 -30.46875 6.1171875 C-29.47875 5.4571875 -28.48875 4.7971875 -27.46875 4.1171875 C-27.79875 2.7971875 -28.12875 1.4771875 -28.46875 0.1171875 C-29.78875 -0.2128125 -31.10875 -0.5428125 -32.46875 -0.8828125 Z M-8.46875 9.1171875 C-10.11875 9.7771875 -11.76875 10.4371875 -13.46875 11.1171875 C-13.13875 13.0971875 -12.80875 15.0771875 -12.46875 17.1171875 C-10.48875 17.7771875 -8.50875 18.4371875 -6.46875 19.1171875 C-6.46875 17.7971875 -6.46875 16.4771875 -6.46875 15.1171875 C-5.80875 15.1171875 -5.14875 15.1171875 -4.46875 15.1171875 C-4.46875 14.4571875 -4.46875 13.7971875 -4.46875 13.1171875 C-5.12875 12.7871875 -5.78875 12.4571875 -6.46875 12.1171875 C-7.12875 11.1271875 -7.78875 10.1371875 -8.46875 9.1171875 Z " fill="#000000" transform="translate(258.46875,59.8828125)"/>
<path d="M0 0 C4.38619203 2.21650985 6.51732605 4.95742427 8.5625 9.375 C9.1979532 14.64018368 8.67509593 18.59660149 5.65234375 22.93359375 C3.84941333 25.05193044 1.96184777 27.02747066 0 29 C-0.88558594 29.89976562 -1.77117187 30.79953125 -2.68359375 31.7265625 C-5.10704786 34.16720422 -7.54584406 36.59028551 -10 39 C-10.99 38.67 -11.98 38.34 -13 38 C-13.74229798 34.10608419 -14.4722807 30.21007634 -15.19116211 26.31176758 C-15.55785683 24.33749863 -15.9341419 22.36501879 -16.31054688 20.39257812 C-16.53935547 19.14541016 -16.76816406 17.89824219 -17.00390625 16.61328125 C-17.21861572 15.46641846 -17.4333252 14.31955566 -17.65454102 13.13793945 C-17.99501445 10.0452857 -17.92811787 7.95460951 -17 5 C-12.24704714 -0.6284968 -7.16163615 -1.4530856 0 0 Z " fill="#000000" transform="translate(431,147)"/>
</svg>
